<?xml version="1.0" standalone="no"?>
<!DOCTYPE svg PUBLIC "-//W3C//DTD SVG 20010904//EN"
 "http://www.w3.org/TR/2001/REC-SVG-20010904/DTD/svg10.dtd">
<svg version="1.0" xmlns="http://www.w3.org/2000/svg"
 width="50.000000pt" height="50.000000pt" viewBox="0 0 50.000000 50.000000"
 preserveAspectRatio="xMidYMid meet">

<g transform="translate(0.000000,50.000000) scale(0.100000,-0.100000)"
fill="#000000" stroke="none">
<path d="M0 250 l0 -250 250 0 250 0 0 250 0 250 -250 0 -250 0 0 -250z m438
177 c5 -25 -28 -34 -44 -12 -11 15 -11 20 -1 27 18 12 41 5 45 -15z m-80 -19
c74 -50 104 -161 63 -241 -10 -20 -15 -37 -10 -37 5 0 9 -4 9 -10 0 -5 -9 -10
-20 -10 -12 0 -34 -10 -50 -21 -35 -27 -114 -36 -164 -19 -19 6 -58 33 -85 59
l-49 47 8 72 c10 89 40 140 102 171 59 30 140 25 196 -11z"/>
<path d="M197 364 c-15 -8 -32 -12 -37 -9 -6 4 -10 -7 -10 -24 0 -28 3 -31 31
-31 19 0 28 4 23 11 -9 15 14 29 49 29 40 0 87 -49 87 -90 0 -43 -47 -90 -90
-90 -46 0 -90 47 -90 95 0 29 -3 36 -17 33 -25 -5 -22 -71 4 -106 28 -38 86
-65 123 -57 44 10 88 51 101 95 10 32 9 44 -7 76 -22 45 -75 84 -113 84 -14
-1 -38 -8 -54 -16z m-13 -39 c-6 -16 -24 -21 -24 -7 0 11 11 22 21 22 5 0 6
-7 3 -15z m1 -153 c22 -19 37 -23 71 -20 23 1 40 0 37 -4 -2 -5 -22 -8 -45 -8
-54 0 -109 51 -107 102 l1 33 8 -39 c5 -25 18 -49 35 -64z"/>
<path d="M252 268 c-17 -17 -15 -25 9 -31 16 -4 18 -3 9 8 -7 8 -9 19 -5 25 8
14 2 13 -13 -2z"/>
</g>
</svg>
